<mxfile host="app.diagrams.net" agent="Mozilla/5.0 (Linux; Android 10; K) AppleWebKit/537.36 (KHTML, like Gecko) Chrome/140.0.0.0 Mobile Safari/537.36" version="28.2.4">
  <diagram name="Page-1" id="ossM5tnIT5DjmsUkHWiX">
    <mxGraphModel dx="148" dy="602" grid="1" gridSize="10" guides="1" tooltips="1" connect="1" arrows="1" fold="1" page="1" pageScale="1" pageWidth="850" pageHeight="1100" math="0" shadow="0">
      <root>
        <mxCell id="0" />
        <mxCell id="1" parent="0" />
        <mxCell id="hAsSqBKMNH_ybaBdbcOW-8" value="Sign up" style="rounded=0;whiteSpace=wrap;html=1;" vertex="1" parent="1">
          <mxGeometry x="290" y="520" width="120" height="60" as="geometry" />
        </mxCell>
        <mxCell id="hAsSqBKMNH_ybaBdbcOW-2" value="" style="endArrow=classic;html=1;rounded=0;fontSize=12;curved=1;entryX=0.5;entryY=0;entryDx=0;entryDy=0;exitX=0.5;exitY=1;exitDx=0;exitDy=0;" edge="1" parent="1" source="ErrCsVKmGAdzu1B1TciV-1" target="hAsSqBKMNH_ybaBdbcOW-1">
          <mxGeometry width="50" height="50" relative="1" as="geometry">
            <mxPoint x="190" y="140" as="sourcePoint" />
            <mxPoint x="310" y="150" as="targetPoint" />
            <Array as="points">
              <mxPoint x="200" y="170" />
            </Array>
          </mxGeometry>
        </mxCell>
        <mxCell id="ErrCsVKmGAdzu1B1TciV-1" value="Choose: nanny services, date, number of babies" style="rounded=0;whiteSpace=wrap;html=1;" parent="1" vertex="1">
          <mxGeometry x="140" y="120" width="120" height="60" as="geometry" />
        </mxCell>
        <mxCell id="hAsSqBKMNH_ybaBdbcOW-1" value="Book" style="rounded=0;whiteSpace=wrap;html=1;" vertex="1" parent="1">
          <mxGeometry x="140" y="230" width="120" height="60" as="geometry" />
        </mxCell>
        <mxCell id="hAsSqBKMNH_ybaBdbcOW-3" value="Already signed up?" style="rhombus;whiteSpace=wrap;html=1;" vertex="1" parent="1">
          <mxGeometry x="135" y="360" width="130" height="80" as="geometry" />
        </mxCell>
        <mxCell id="hAsSqBKMNH_ybaBdbcOW-4" value="" style="endArrow=classic;html=1;rounded=0;fontSize=12;startSize=8;endSize=8;curved=1;exitX=0.5;exitY=1;exitDx=0;exitDy=0;entryX=0.5;entryY=0;entryDx=0;entryDy=0;" edge="1" parent="1" source="hAsSqBKMNH_ybaBdbcOW-1" target="hAsSqBKMNH_ybaBdbcOW-3">
          <mxGeometry width="50" height="50" relative="1" as="geometry">
            <mxPoint x="210" y="310" as="sourcePoint" />
            <mxPoint x="195" y="370" as="targetPoint" />
            <Array as="points">
              <mxPoint x="200" y="320" />
            </Array>
          </mxGeometry>
        </mxCell>
        <mxCell id="hAsSqBKMNH_ybaBdbcOW-7" value="Sign in" style="rounded=0;whiteSpace=wrap;html=1;" vertex="1" parent="1">
          <mxGeometry x="140" y="520" width="120" height="60" as="geometry" />
        </mxCell>
        <mxCell id="hAsSqBKMNH_ybaBdbcOW-11" value="" style="endArrow=classic;html=1;rounded=0;fontSize=12;startSize=8;endSize=8;curved=1;" edge="1" parent="1" source="hAsSqBKMNH_ybaBdbcOW-8">
          <mxGeometry relative="1" as="geometry">
            <mxPoint x="290" y="560" as="sourcePoint" />
            <mxPoint x="390" y="560" as="targetPoint" />
          </mxGeometry>
        </mxCell>
        <mxCell id="hAsSqBKMNH_ybaBdbcOW-17" value="" style="endArrow=classic;html=1;rounded=0;fontSize=12;startSize=8;endSize=8;curved=1;exitX=1;exitY=0.5;exitDx=0;exitDy=0;entryX=0.5;entryY=0;entryDx=0;entryDy=0;" edge="1" parent="1" source="hAsSqBKMNH_ybaBdbcOW-3" target="hAsSqBKMNH_ybaBdbcOW-8">
          <mxGeometry relative="1" as="geometry">
            <mxPoint x="290" y="560" as="sourcePoint" />
            <mxPoint x="360" y="510" as="targetPoint" />
          </mxGeometry>
        </mxCell>
        <mxCell id="hAsSqBKMNH_ybaBdbcOW-18" value="No" style="edgeLabel;resizable=0;html=1;;align=center;verticalAlign=middle;rotation=0;" connectable="0" vertex="1" parent="hAsSqBKMNH_ybaBdbcOW-17">
          <mxGeometry relative="1" as="geometry">
            <mxPoint x="-12" y="-20" as="offset" />
          </mxGeometry>
        </mxCell>
        <mxCell id="hAsSqBKMNH_ybaBdbcOW-19" value="" style="endArrow=classic;html=1;rounded=0;fontSize=12;startSize=8;endSize=8;curved=1;exitX=0.5;exitY=1;exitDx=0;exitDy=0;entryX=0.5;entryY=0;entryDx=0;entryDy=0;" edge="1" parent="1" source="hAsSqBKMNH_ybaBdbcOW-3" target="hAsSqBKMNH_ybaBdbcOW-7">
          <mxGeometry relative="1" as="geometry">
            <mxPoint x="210" y="510" as="sourcePoint" />
            <mxPoint x="310" y="510" as="targetPoint" />
          </mxGeometry>
        </mxCell>
        <mxCell id="hAsSqBKMNH_ybaBdbcOW-20" value="Yes" style="edgeLabel;resizable=0;html=1;;align=center;verticalAlign=middle;" connectable="0" vertex="1" parent="hAsSqBKMNH_ybaBdbcOW-19">
          <mxGeometry relative="1" as="geometry">
            <mxPoint y="-10" as="offset" />
          </mxGeometry>
        </mxCell>
        <mxCell id="hAsSqBKMNH_ybaBdbcOW-21" value="" style="endArrow=classic;html=1;rounded=0;fontSize=12;startSize=8;endSize=8;curved=1;" edge="1" parent="1" target="hAsSqBKMNH_ybaBdbcOW-8">
          <mxGeometry relative="1" as="geometry">
            <mxPoint x="290" y="560" as="sourcePoint" />
            <mxPoint x="390" y="560" as="targetPoint" />
          </mxGeometry>
        </mxCell>
        <mxCell id="hAsSqBKMNH_ybaBdbcOW-22" value="Choose the nanny and fill in form" style="rounded=0;whiteSpace=wrap;html=1;" vertex="1" parent="1">
          <mxGeometry x="140" y="640" width="120" height="60" as="geometry" />
        </mxCell>
        <mxCell id="hAsSqBKMNH_ybaBdbcOW-24" value="" style="endArrow=classic;html=1;rounded=0;fontSize=12;startSize=8;endSize=8;curved=1;exitX=0.5;exitY=1;exitDx=0;exitDy=0;entryX=0.5;entryY=0;entryDx=0;entryDy=0;" edge="1" parent="1" source="hAsSqBKMNH_ybaBdbcOW-7" target="hAsSqBKMNH_ybaBdbcOW-22">
          <mxGeometry width="50" height="50" relative="1" as="geometry">
            <mxPoint x="230" y="460" as="sourcePoint" />
            <mxPoint x="280" y="410" as="targetPoint" />
            <Array as="points" />
          </mxGeometry>
        </mxCell>
        <mxCell id="hAsSqBKMNH_ybaBdbcOW-25" value="Pay deposit" style="rounded=0;whiteSpace=wrap;html=1;" vertex="1" parent="1">
          <mxGeometry x="140" y="760" width="120" height="60" as="geometry" />
        </mxCell>
        <mxCell id="hAsSqBKMNH_ybaBdbcOW-26" value="" style="endArrow=classic;html=1;rounded=0;fontSize=12;startSize=8;endSize=8;curved=1;entryX=0.5;entryY=0;entryDx=0;entryDy=0;exitX=0.5;exitY=1;exitDx=0;exitDy=0;" edge="1" parent="1" source="hAsSqBKMNH_ybaBdbcOW-22" target="hAsSqBKMNH_ybaBdbcOW-25">
          <mxGeometry width="50" height="50" relative="1" as="geometry">
            <mxPoint x="190" y="750" as="sourcePoint" />
            <mxPoint x="200" y="680" as="targetPoint" />
            <Array as="points" />
          </mxGeometry>
        </mxCell>
        <mxCell id="hAsSqBKMNH_ybaBdbcOW-31" value="Save information" style="rounded=0;whiteSpace=wrap;html=1;" vertex="1" parent="1">
          <mxGeometry x="140" y="990" width="120" height="60" as="geometry" />
        </mxCell>
        <mxCell id="hAsSqBKMNH_ybaBdbcOW-32" value="" style="endArrow=classic;html=1;rounded=0;fontSize=12;startSize=8;endSize=8;curved=1;" edge="1" parent="1" source="hAsSqBKMNH_ybaBdbcOW-30">
          <mxGeometry width="50" height="50" relative="1" as="geometry">
            <mxPoint x="200" y="820" as="sourcePoint" />
            <mxPoint x="200" y="890" as="targetPoint" />
          </mxGeometry>
        </mxCell>
        <mxCell id="hAsSqBKMNH_ybaBdbcOW-33" value="" style="endArrow=classic;html=1;rounded=0;fontSize=12;startSize=8;endSize=8;curved=1;" edge="1" parent="1">
          <mxGeometry width="50" height="50" relative="1" as="geometry">
            <mxPoint x="200" y="820" as="sourcePoint" />
            <mxPoint x="200" y="870" as="targetPoint" />
            <Array as="points">
              <mxPoint x="200" y="870" />
            </Array>
          </mxGeometry>
        </mxCell>
        <mxCell id="hAsSqBKMNH_ybaBdbcOW-30" value="Send request" style="rounded=0;whiteSpace=wrap;html=1;" vertex="1" parent="1">
          <mxGeometry x="140" y="870" width="120" height="60" as="geometry" />
        </mxCell>
        <mxCell id="hAsSqBKMNH_ybaBdbcOW-34" value="" style="endArrow=classic;html=1;rounded=0;fontSize=12;startSize=8;endSize=8;curved=1;exitX=0.5;exitY=1;exitDx=0;exitDy=0;entryX=0.5;entryY=0;entryDx=0;entryDy=0;" edge="1" parent="1" source="hAsSqBKMNH_ybaBdbcOW-30" target="hAsSqBKMNH_ybaBdbcOW-31">
          <mxGeometry width="50" height="50" relative="1" as="geometry">
            <mxPoint x="190" y="830" as="sourcePoint" />
            <mxPoint x="240" y="780" as="targetPoint" />
          </mxGeometry>
        </mxCell>
      </root>
    </mxGraphModel>
  </diagram>
</mxfile>
